<?xml version="1.0" encoding="utf-8"?>
<!-- Generator: Adobe Illustrator 24.3.0, SVG Export Plug-In . SVG Version: 6.00 Build 0)  -->
<svg version="1.1" id="Layer_1" xmlns="http://www.w3.org/2000/svg" xmlns:xlink="http://www.w3.org/1999/xlink" x="0px" y="0px"
	 viewBox="0 0 300 300" style="enable-background:new 0 0 300 300;" xml:space="preserve">
<style type="text/css">
	.st0{fill:#FFFFFF;stroke:#2C3E50;stroke-width:2;stroke-miterlimit:10;enable-background:new    ;}
	.st1{fill:#FFFFFF;stroke:#2C3E50;stroke-width:2;stroke-miterlimit:10;}
	.st2{fill:#5A8FFF;stroke:#2C3E50;stroke-width:2;stroke-miterlimit:10;}
	.st3{fill:#5A8FFF;stroke:#2C3E50;stroke-width:2;stroke-miterlimit:10;enable-background:new    ;}
</style>
<g>
	<path class="st0" d="M212.1,67.3c-2.7-2.7-6.4-4.3-10.2-4.3H163c-3.6,0-7.1,1.4-9.8,3.8l-44.5,40.7c0,0-0.1,0.1-0.1,0.2
		c-7.2,6.8-7.6,18.1-1,25.3c5.7,6.3,17.8,8,25.4,1.2c0,0,0.1,0,0.2-0.1l36.2-33.1c3-2.6,7.6-2.3,10.2,0.7c2.6,2.9,2.4,7.3-0.4,10
		l-11.8,10.8l65.9,53.5c1.3,1.1,2.5,2.2,3.6,3.5V92L212.1,67.3z"/>
	<path class="st1" d="M224.2,187.4l-67.6-54.8L143,145c-13.5,11.8-34.1,10.5-46-3.1C85.6,128.8,86.5,109,99,97l37-33.9H98.1
		c-3.8,0-7.5,1.5-10.2,4.3L63.1,92v101.3h8.3l41,37.1c12.4,10.1,30.6,8.2,40.7-4.2l0.1-0.1l8.1,7c7.2,5.9,17.8,4.8,23.7-2.4
		c0,0,0,0,0,0l14.2-17.5l2.4,2c6.2,5,15.3,4.1,20.4-2.1l4.3-5.3C231.3,201.6,230.4,192.5,224.2,187.4L224.2,187.4z"/>
	<path class="st2" d="M251.7,93.2v99.9c0,7.9,6.4,14.3,14.3,14.3h28.6V93.2H251.7z M273.1,193.1c-3.9,0-7.1-3.2-7.1-7.1
		s3.2-7.1,7.1-7.1c3.9,0,7.1,3.2,7.1,7.1S277.1,193.1,273.1,193.1z"/>
	<path class="st3" d="M5.5,207.7h28.6c7.9,0,14.3-6.4,14.3-14.3v-100H5.5V207.7z M26.9,179.2c3.9,0,7.2,3.2,7.2,7.2
		s-3.2,7.2-7.2,7.2s-7.2-3.2-7.2-7.2S23,179.2,26.9,179.2z"/>
</g>
<g>
</g>
<g>
</g>
<g>
</g>
<g>
</g>
<g>
</g>
<g>
</g>
<g>
</g>
<g>
</g>
<g>
</g>
<g>
</g>
<g>
</g>
<g>
</g>
<g>
</g>
<g>
</g>
<g>
</g>
</svg>
